<?xml version="1.0" encoding="utf-8"?>
<!-- Generator: Adobe Illustrator 16.0.3, SVG Export Plug-In . SVG Version: 6.00 Build 0)  -->
<!DOCTYPE svg PUBLIC "-//W3C//DTD SVG 1.1//EN" "http://www.w3.org/Graphics/SVG/1.1/DTD/svg11.dtd">
<svg version="1.1" xmlns="http://www.w3.org/2000/svg" xmlns:xlink="http://www.w3.org/1999/xlink" x="0px" y="0px"
	 width="174.057px" height="50.649px" viewBox="0 0 174.057 50.649" enable-background="new 0 0 174.057 50.649"
	 xml:space="preserve">
<g id="BG">
</g>
<g id="_x24_">
</g>
<g id="UI">
	<g>
		<linearGradient id="SVGID_1_" gradientUnits="userSpaceOnUse" x1="87.0283" y1="50.6494" x2="87.0283" y2="0">
			<stop  offset="0.4086" style="stop-color:#EFEFEF"/>
			<stop  offset="0.4622" style="stop-color:#E4E4E4"/>
			<stop  offset="0.6125" style="stop-color:#CACACB"/>
			<stop  offset="0.7479" style="stop-color:#BABABB"/>
			<stop  offset="0.8548" style="stop-color:#B5B5B6"/>
		</linearGradient>
		<path fill="url(#SVGID_1_)" d="M174.057,0H12.771C5.718,0,0,6.048,0,13.511v37.139h174.057V0z"/>
		<linearGradient id="SVGID_2_" gradientUnits="userSpaceOnUse" x1="88.7422" y1="48.4014" x2="88.7422" y2="0">
			<stop  offset="0.2151" style="stop-color:#FFFFFF;stop-opacity:0.03"/>
			<stop  offset="0.8482" style="stop-color:#FFFFFF;stop-opacity:0.5164"/>
			<stop  offset="0.957" style="stop-color:#FFFFFF;stop-opacity:0.6"/>
		</linearGradient>
		<path opacity="0.6" fill="url(#SVGID_2_)" d="M174.057,0H15.946C9.034,0,3.428,5.777,3.428,12.912v35.489h170.629V0z"/>
		<g>
			<path fill="#727171" d="M51.011,37.79l-1.86,1.89c-2.188-1.855-3.877-3.599-5.068-5.229c-1.299,1.68-3.037,3.413-5.215,5.2
				l-1.919-1.86c2.48-1.973,4.37-3.833,5.669-5.581c-2.139-3.477-3.457-8.057-3.955-13.74h-0.601v-1.948h-1.538v22.91h-2.578v-4.951
				c-2.773,0.928-5.645,1.68-8.613,2.256l-0.923-2.578c0.713-0.078,1.484-0.2,2.314-0.366V16.521h-1.919v-2.52h13.667v1.831H49.78
				c-0.283,7.314-1.641,12.793-4.072,16.436C46.899,34.006,48.667,35.847,51.011,37.79z M33.945,20.153v-3.633h-4.614v3.633H33.945z
				 M33.945,26.291v-3.618h-4.614v3.618H33.945z M33.945,31.784v-3.003h-4.614v4.38C31.06,32.761,32.598,32.302,33.945,31.784z
				 M46.997,18.469H41.27c0.469,4.531,1.46,8.232,2.974,11.104C45.64,26.721,46.558,23.02,46.997,18.469z"/>
			<path fill="#727171" d="M64.572,24.284l-1.641,2.197c-1.67-1.455-3.462-2.686-5.376-3.691l1.626-2.197
				C61.154,21.657,62.951,22.888,64.572,24.284z M64.997,29.602c-1.396,3.848-3.047,7.197-4.951,10.049l-2.344-1.567
				c1.846-2.666,3.506-5.986,4.98-9.961L64.997,29.602z M64.997,17.473l-1.86,2.051c-1.553-1.68-3.32-3.13-5.303-4.351l1.948-2.021
				C61.657,14.382,63.396,15.822,64.997,17.473z M82.883,36.223c0,1.357-0.298,2.227-0.894,2.607s-1.694,0.571-3.296,0.571
				c-0.586,0-1.113-0.02-1.582-0.059l-0.981-2.49c1.641,0.029,2.747,0.024,3.318-0.015s0.857-0.254,0.857-0.645v-3.472
				c-3.242,0.869-6.655,1.646-10.239,2.329l-0.894-1.67c-0.508,2.539-1.47,4.536-2.886,5.991l-2.124-1.699
				c0.752-0.762,1.379-1.826,1.882-3.193s0.754-3.423,0.754-6.167v-6.211h6.694v-8.818h2.666v8.818h6.724V36.223z M71.75,19.992
				l-2.314,1.318c-1.201-2.334-2.49-4.321-3.867-5.962l2.344-1.406C69.68,16.237,70.959,18.254,71.75,19.992z M80.305,30.173v-5.64
				H69.436v1.758c3.125,0.244,6.206,0.547,9.243,0.908l-0.688,2.549c-2.52-0.439-5.371-0.781-8.555-1.025
				c0.029,1.24-0.02,2.529-0.146,3.867C73.146,31.975,76.818,31.169,80.305,30.173z M83.835,14.982
				c-0.742,2.041-1.86,4.194-3.354,6.46l-2.49-1.201c1.348-1.943,2.476-4.043,3.384-6.299L83.835,14.982z"/>
			<path fill="#727171" d="M94.159,33.791c-0.352,1.963-0.903,3.936-1.655,5.918l-2.212-0.996c0.713-1.963,1.221-3.74,1.523-5.332
				L94.159,33.791z M98.334,24.313c-1.631,2.607-3.125,4.58-4.482,5.918c0.371,0,0.894-0.063,1.567-0.19
				c0-0.273-0.093-0.562-0.278-0.864l1.963-0.542c0.469,1.309,0.767,2.51,0.894,3.604l-1.919,0.483
				c-0.02-0.205-0.078-0.508-0.176-0.908c-1.846,0.332-3.438,0.532-4.775,0.601l-0.454-1.743c0.967-0.732,1.851-1.621,2.651-2.666
				c-0.742,0.078-1.416,0.117-2.021,0.117l-0.439-1.729c1.064-1.084,1.963-2.544,2.695-4.38l2.065,0.659
				c-0.371,0.947-1.079,2.036-2.124,3.267c0.391,0.029,0.85-0.01,1.377-0.117c0.625-0.869,1.094-1.641,1.406-2.314L98.334,24.313z
				 M103.9,21.589H91.962v-7.866H103.9V21.589z M101.293,16.813v-1.26h-6.65v1.26H101.293z M101.293,19.758v-1.26h-6.65v1.26
				H101.293z M97.426,38.684l-2.373,0.308c0.059-1.426-0.049-3.096-0.322-5.01l2.124-0.425
				C97.206,35.314,97.396,37.023,97.426,38.684z M101.205,38.112l-2.271,0.396c-0.186-1.709-0.527-3.311-1.025-4.805l2.124-0.41
				C100.678,35.334,101.068,36.94,101.205,38.112z M105.468,31.989l-2.007,0.542c-0.127-0.557-0.19-0.845-0.19-0.864
				c-1.338,0.322-2.856,0.61-4.556,0.864l-0.542-1.729c0.771-0.713,1.592-1.694,2.461-2.944c-0.908,0.166-1.646,0.273-2.212,0.322
				l-0.483-1.787c1.055-1.289,1.855-2.71,2.402-4.263l2.065,0.601c-0.479,1.133-1.157,2.202-2.036,3.208l1.465-0.146
				c0.391-0.684,0.752-1.387,1.084-2.109l2.036,0.776c-1.455,2.686-2.744,4.609-3.867,5.771c0.684-0.049,1.245-0.151,1.685-0.308
				c-0.049-0.225-0.151-0.542-0.308-0.952l1.919-0.513C104.892,29.807,105.253,30.983,105.468,31.989z M104.691,36.53l-2.139,0.806
				c-0.361-1.27-0.84-2.529-1.436-3.779l2.095-0.659C103.866,34.167,104.359,35.378,104.691,36.53z M116.688,16.184h-4.409
				c-0.156,0.703-0.386,1.563-0.688,2.578h4.102V33.85h-6.782l1.772,1.509c-1.582,1.895-3.188,3.384-4.819,4.468l-1.597-2.183
				c1.582-1.035,3.013-2.3,4.292-3.794h-2.695V18.762h2.842c0.283-0.762,0.542-1.621,0.776-2.578h-4.497v-2.402h11.704V16.184z
				 M113.144,23.024v-1.919h-4.79v1.919H113.144z M113.144,27.199v-1.978h-4.79v1.978H113.144z M113.144,31.55v-2.197h-4.79v2.197
				H113.144z M117.172,37.644l-1.802,2.036c-1.279-1.172-2.681-2.261-4.204-3.267l1.743-1.89
				C114.374,35.393,115.795,36.433,117.172,37.644z"/>
			<path fill="#727171" d="M132.916,26.774c-1.895,4.189-4.355,7.661-7.383,10.415l-2.065-1.948
				c2.783-2.432,5.122-5.571,7.017-9.419L132.916,26.774z M149.776,23.449H138.16V39.46h-2.842V23.449h-11.646v-2.607h26.104V23.449
				z M146.773,16.638h-20.01v-2.666h20.01V16.638z M150.201,35.681l-2.285,1.479c-2.344-3.906-4.824-7.329-7.441-10.269l2.461-1.289
				C146.08,29.333,148.502,32.692,150.201,35.681z"/>
		</g>
	</g>
</g>
<g id="選單">
</g>
</svg>
