<?xml version="1.0" encoding="utf-8"?>
<!-- Generator: Adobe Illustrator 16.0.3, SVG Export Plug-In . SVG Version: 6.00 Build 0)  -->
<!DOCTYPE svg PUBLIC "-//W3C//DTD SVG 1.1//EN" "http://www.w3.org/Graphics/SVG/1.1/DTD/svg11.dtd">
<svg version="1.1" xmlns="http://www.w3.org/2000/svg" xmlns:xlink="http://www.w3.org/1999/xlink" x="0px" y="0px"
	 width="174.057px" height="50.649px" viewBox="0 0 174.057 50.649" enable-background="new 0 0 174.057 50.649"
	 xml:space="preserve">
<g id="BG">
</g>
<g id="_x24_">
</g>
<g id="UI">
	<g>
		<linearGradient id="SVGID_1_" gradientUnits="userSpaceOnUse" x1="87.0283" y1="50.6494" x2="87.0283" y2="0">
			<stop  offset="0" style="stop-color:#86C166"/>
			<stop  offset="0.0068" style="stop-color:#80BF62"/>
			<stop  offset="0.0493" style="stop-color:#5FB24E"/>
			<stop  offset="0.0931" style="stop-color:#45A83F"/>
			<stop  offset="0.138" style="stop-color:#33A234"/>
			<stop  offset="0.1848" style="stop-color:#289D2D"/>
			<stop  offset="0.2366" style="stop-color:#249C2B"/>
			<stop  offset="0.2909" style="stop-color:#38A437"/>
			<stop  offset="0.3829" style="stop-color:#55AE48"/>
			<stop  offset="0.482" style="stop-color:#6AB755"/>
			<stop  offset="0.5904" style="stop-color:#7ABC5F"/>
			<stop  offset="0.715" style="stop-color:#83C064"/>
			<stop  offset="0.8925" style="stop-color:#86C166"/>
			<stop  offset="1" style="stop-color:#BEE0A2"/>
		</linearGradient>
		<path fill="url(#SVGID_1_)" d="M174.057,0H12.771C5.718,0,0,6.048,0,13.511v37.139h174.057V0z"/>
		<linearGradient id="SVGID_2_" gradientUnits="userSpaceOnUse" x1="88.7422" y1="48.4014" x2="88.7422" y2="3.002">
			<stop  offset="0.2151" style="stop-color:#FFFFFF;stop-opacity:0.03"/>
			<stop  offset="0.8482" style="stop-color:#FFFFFF;stop-opacity:0.5164"/>
			<stop  offset="0.957" style="stop-color:#FFFFFF;stop-opacity:0.6"/>
		</linearGradient>
		<path opacity="0.6" fill="url(#SVGID_2_)" d="M174.057,3.002H15.946c-6.912,0-12.519,5.419-12.519,12.111v33.288h170.629V3.002z"
			/>
		<g>
			<path fill="#F7F8F8" d="M28.159,33.791c-0.352,1.963-0.903,3.936-1.655,5.918l-2.212-0.996c0.713-1.963,1.221-3.74,1.523-5.332
				L28.159,33.791z M32.334,24.313c-1.631,2.607-3.125,4.58-4.482,5.918c0.371,0,0.894-0.063,1.567-0.19
				c0-0.273-0.093-0.562-0.278-0.864l1.963-0.542c0.469,1.309,0.767,2.51,0.894,3.604l-1.919,0.483
				c-0.02-0.205-0.078-0.508-0.176-0.908c-1.846,0.332-3.438,0.532-4.775,0.601l-0.454-1.743c0.967-0.732,1.851-1.621,2.651-2.666
				c-0.742,0.078-1.416,0.117-2.021,0.117l-0.439-1.729c1.064-1.084,1.963-2.544,2.695-4.38l2.065,0.659
				c-0.371,0.947-1.079,2.036-2.124,3.267c0.391,0.029,0.85-0.01,1.377-0.117c0.625-0.869,1.094-1.641,1.406-2.314L32.334,24.313z
				 M37.9,21.589H25.962v-7.866H37.9V21.589z M35.293,16.813v-1.26h-6.65v1.26H35.293z M35.293,19.758v-1.26h-6.65v1.26H35.293z
				 M31.426,38.684l-2.373,0.308c0.059-1.426-0.049-3.096-0.322-5.01l2.124-0.425C31.206,35.314,31.396,37.023,31.426,38.684z
				 M35.205,38.112l-2.271,0.396c-0.186-1.709-0.527-3.311-1.025-4.805l2.124-0.41C34.678,35.334,35.068,36.94,35.205,38.112z
				 M39.468,31.989l-2.007,0.542c-0.127-0.557-0.19-0.845-0.19-0.864c-1.338,0.322-2.856,0.61-4.556,0.864l-0.542-1.729
				c0.771-0.713,1.592-1.694,2.461-2.944c-0.908,0.166-1.646,0.273-2.212,0.322l-0.483-1.787c1.055-1.289,1.855-2.71,2.402-4.263
				l2.065,0.601c-0.479,1.133-1.157,2.202-2.036,3.208l1.465-0.146c0.391-0.684,0.752-1.387,1.084-2.109l2.036,0.776
				c-1.455,2.686-2.744,4.609-3.867,5.771c0.684-0.049,1.245-0.151,1.685-0.308c-0.049-0.225-0.151-0.542-0.308-0.952l1.919-0.513
				C38.892,29.807,39.253,30.983,39.468,31.989z M38.691,36.53l-2.139,0.806c-0.361-1.27-0.84-2.529-1.436-3.779l2.095-0.659
				C37.866,34.167,38.359,35.378,38.691,36.53z M50.688,16.184h-4.409c-0.156,0.703-0.386,1.563-0.688,2.578h4.102V33.85H42.91
				l1.772,1.509c-1.582,1.895-3.188,3.384-4.819,4.468l-1.597-2.183c1.582-1.035,3.013-2.3,4.292-3.794h-2.695V18.762h2.842
				c0.283-0.762,0.542-1.621,0.776-2.578h-4.497v-2.402h11.704V16.184z M47.144,23.024v-1.919h-4.79v1.919H47.144z M47.144,27.199
				v-1.978h-4.79v1.978H47.144z M47.144,31.55v-2.197h-4.79v2.197H47.144z M51.172,37.644L49.37,39.68
				c-1.279-1.172-2.681-2.261-4.204-3.267l1.743-1.89C48.374,35.393,49.795,36.433,51.172,37.644z"/>
			<path fill="#F7F8F8" d="M66.916,26.774c-1.895,4.189-4.355,7.661-7.383,10.415l-2.065-1.948c2.783-2.432,5.122-5.571,7.017-9.419
				L66.916,26.774z M83.776,23.449H72.16V39.46h-2.842V23.449H57.673v-2.607h26.104V23.449z M80.773,16.638h-20.01v-2.666h20.01
				V16.638z M84.201,35.681l-2.285,1.479c-2.344-3.906-4.824-7.329-7.441-10.269l2.461-1.289
				C80.08,29.333,82.502,32.692,84.201,35.681z"/>
			<path fill="#F7F8F8" d="M94.247,32.692c-0.254,2.451-0.742,4.707-1.465,6.768l-2.285-1.069c0.742-2.07,1.23-4.214,1.465-6.431
				L94.247,32.692z M101.059,30.407l-2.168,0.952c-0.098-0.527-0.205-1.006-0.322-1.436c-2.92,0.742-5.361,1.245-7.324,1.509
				l-0.659-2.08c1.592-1.387,3.184-3.447,4.775-6.182c-1.455,0.273-2.817,0.464-4.087,0.571l-0.322-2.358
				c1.719-2.051,3.169-4.805,4.351-8.262l2.358,1.084c-1.025,2.764-2.222,4.976-3.589,6.636c0.908-0.068,1.836-0.21,2.783-0.425
				c0.293-0.547,0.854-1.719,1.685-3.516l2.432,1.113c-2.305,4.727-4.546,8.237-6.724,10.532c1.064-0.176,2.275-0.464,3.633-0.864
				c-0.098-0.41-0.288-0.942-0.571-1.597l2.036-0.864C100.282,27.507,100.854,29.235,101.059,30.407z M97.821,38.112l-2.314,0.454
				c-0.098-2.637-0.298-4.585-0.601-5.845l2.168-0.483C97.504,34.514,97.753,36.472,97.821,38.112z M100.78,35.783l-1.948,0.688
				c-0.156-1.299-0.435-2.71-0.835-4.233l1.86-0.483C100.365,33.19,100.673,34.533,100.78,35.783z M104.354,31.55
				c-0.254,2.588-0.874,4.976-1.86,7.163l-2.124-1.172c0.82-1.816,1.421-4.106,1.802-6.87L104.354,31.55z M115.458,29.353H101.63
				V15.231h3.662c0.361-0.605,0.698-1.328,1.011-2.168l2.739,0.513c-0.078,0.293-0.332,0.845-0.762,1.655h7.178V29.353z
				 M112.851,27.053v-9.551h-8.584v9.551H112.851z M112.602,24.68l-1.465,1.611c-0.713-0.752-1.255-1.309-1.626-1.67
				c-0.723,0.918-1.372,1.646-1.948,2.183l-1.523-1.348c0.625-0.576,1.265-1.318,1.919-2.227c-0.313-0.313-0.542-0.532-0.688-0.659
				c-0.342,0.43-0.854,1.011-1.538,1.743l-1.377-1.436c0.41-0.391,0.859-0.889,1.348-1.494c-0.313-0.244-0.713-0.537-1.201-0.879
				l1.362-1.611c0.205,0.117,0.542,0.356,1.011,0.718c0.234-0.43,0.493-0.981,0.776-1.655l1.772,0.938l-0.981,1.89
				c0.381,0.293,0.62,0.493,0.718,0.601c0.498-0.693,0.947-1.548,1.348-2.563l1.743,0.938c-0.439,1.084-0.942,2.075-1.509,2.974
				L112.602,24.68z M113.451,35.153c-0.117,1.289-0.293,2.192-0.527,2.71s-0.581,0.884-1.04,1.099s-1.362,0.322-2.71,0.322
				c-0.85,0-1.548-0.02-2.095-0.059s-1.023-0.256-1.428-0.652c-0.405-0.395-0.608-0.905-0.608-1.53v-6.401h2.549v5.581
				c0,0.313,0.103,0.518,0.308,0.615s0.771,0.146,1.699,0.146c0.498,0,0.83-0.073,0.996-0.22s0.293-0.435,0.381-0.864
				s0.132-0.952,0.132-1.567L113.451,35.153z M111.737,33.352l-2.153,0.981c-0.42-1.377-0.894-2.563-1.421-3.56l2.139-0.82
				C110.751,30.754,111.229,31.887,111.737,33.352z M117.113,36.647l-2.109,1.289c-0.479-1.934-1.216-3.916-2.212-5.947l2.095-1.26
				C116.098,33.327,116.84,35.3,117.113,36.647z"/>
			<path fill="#F7F8F8" d="M139.581,32.956h-3.633c-0.713,1.064-1.343,1.885-1.89,2.461c1.602,0.645,2.983,1.255,4.146,1.831
				l-1.479,1.919c-2.002-0.928-3.55-1.597-4.644-2.007c-2.676,1.338-5.176,2.188-7.5,2.549l-1.055-2.256
				c2.1-0.264,3.931-0.723,5.493-1.377c-1.533-0.557-2.822-0.947-3.867-1.172c0.947-1.016,1.523-1.665,1.729-1.948h-3.12V30.92
				h4.746l1.113-1.714h-4.556v-4.951h5.244v-1.406h-5.317v-3.267h-1.348v-1.919h1.348V14.44h5.317v-1.157h2.49v1.157h5.244v3.223
				h1.479v1.919h-1.479v3.267h-5.244v1.406h5.303v4.951h-5.479l-1.084,1.714h2.725c0.146-0.244,0.308-0.586,0.483-1.025l2.314,0.542
				c0,0.146-0.054,0.308-0.161,0.483h2.681V32.956z M130.309,17.663V16.33h-2.915v1.333H130.309z M130.309,21.018v-1.436h-2.915
				v1.436H130.309z M130.309,27.287v-1.172h-2.827v1.172H130.309z M133.033,32.956h-2.959c-0.039,0.068-0.273,0.366-0.703,0.894
				l2.314,0.703C132.242,33.996,132.691,33.464,133.033,32.956z M135.611,17.663V16.33h-2.813v1.333H135.611z M135.611,20.988
				v-1.406h-2.813v1.406H135.611z M135.714,27.287v-1.172h-2.915v1.172H135.714z M150.172,37.453l-1.318,2.227
				c-2.07-1.563-3.54-3.032-4.409-4.409c-1.211,1.68-2.583,3.13-4.116,4.351l-1.743-1.978c1.885-1.523,3.335-3.105,4.351-4.746
				c-0.986-1.748-1.733-3.75-2.241-6.006l2.3-1.26c0.42,1.836,0.84,3.228,1.26,4.175c0.742-2.441,1.172-5.713,1.289-9.814h-2.212
				c-0.938,2.773-1.87,4.893-2.798,6.357l-1.729-2.153c1.611-3.018,2.769-6.729,3.472-11.133l2.549,0.366
				c-0.127,0.859-0.396,2.217-0.806,4.072h5.728v2.49h-1.655c-0.215,5.479-0.972,9.771-2.271,12.876
				C147.003,34.685,148.453,36.213,150.172,37.453z"/>
		</g>
	</g>
</g>
<g id="選單">
</g>
</svg>
